<svg width="25" height="25" viewBox="0 0 25 25" fill="none" xmlns="http://www.w3.org/2000/svg">
<path d="M6.05005 4.38159H14.05C15.1109 4.38159 16.1283 4.80302 16.8785 5.55316C17.6286 6.30331 18.05 7.32073 18.05 8.38159C18.05 9.44246 17.6286 10.4599 16.8785 11.21C16.1283 11.9602 15.1109 12.3816 14.05 12.3816H6.05005V4.38159Z" stroke="black" stroke-width="2" stroke-linecap="round" stroke-linejoin="round"/>
<path d="M6.05005 12.3816H15.05C16.1109 12.3816 17.1283 12.803 17.8785 13.5532C18.6286 14.3033 19.05 15.3207 19.05 16.3816C19.05 17.4425 18.6286 18.4599 17.8785 19.21C17.1283 19.9602 16.1109 20.3816 15.05 20.3816H6.05005V12.3816Z" stroke="black" stroke-width="2" stroke-linecap="round" stroke-linejoin="round"/>
</svg>
