<svg width="25" height="25" viewBox="0 0 25 25" fill="none" xmlns="http://www.w3.org/2000/svg">
<g clip-path="url(#clip0)">
<path d="M22.5887 7.21858C22.4699 6.74399 22.228 6.30916 21.8873 5.95799C21.5467 5.60682 21.1194 5.35177 20.6487 5.21858C18.9287 4.79858 12.0487 4.79858 12.0487 4.79858C12.0487 4.79858 5.16867 4.79858 3.44867 5.25858C2.97791 5.39177 2.55064 5.64682 2.21001 5.99799C1.86938 6.34916 1.62746 6.78399 1.50867 7.25858C1.19388 9.00414 1.0399 10.7749 1.04867 12.5486C1.03745 14.3356 1.19144 16.1199 1.50867 17.8786C1.63963 18.3384 1.88697 18.7567 2.22681 19.0931C2.56665 19.4294 2.98749 19.6724 3.44867 19.7986C5.16867 20.2586 12.0487 20.2586 12.0487 20.2586C12.0487 20.2586 18.9287 20.2586 20.6487 19.7986C21.1194 19.6654 21.5467 19.4103 21.8873 19.0592C22.228 18.708 22.4699 18.2732 22.5887 17.7986C22.901 16.0662 23.055 14.3089 23.0487 12.5486C23.0599 10.7615 22.9059 8.97728 22.5887 7.21858V7.21858Z" stroke="black" stroke-width="2" stroke-linecap="round" stroke-linejoin="round"/>
<path d="M9.79871 15.8186L15.5487 12.5486L9.79871 9.27856V15.8186Z" stroke="black" stroke-width="2" stroke-linecap="round" stroke-linejoin="round"/>
</g>
<defs>
<clipPath id="clip0">
<rect width="24" height="24" fill="white" transform="translate(0.0487061 0.798584)"/>
</clipPath>
</defs>
</svg>
