<svg width="20" height="20" viewBox="0 0 25 25" fill="none" xmlns="http://www.w3.org/2000/svg">
<path d="M11.3334 4.5H4.33337C3.80294 4.5 3.29423 4.71071 2.91916 5.08579C2.54409 5.46086 2.33337 5.96957 2.33337 6.5V20.5C2.33337 21.0304 2.54409 21.5391 2.91916 21.9142C3.29423 22.2893 3.80294 22.5 4.33337 22.5H18.3334C18.8638 22.5 19.3725 22.2893 19.7476 21.9142C20.1227 21.5391 20.3334 21.0304 20.3334 20.5V13.5" stroke="#9CA3AF" stroke-width="2" stroke-linecap="round" stroke-linejoin="round"/>
<path d="M18.8334 3.00001C19.2312 2.60219 19.7708 2.37869 20.3334 2.37869C20.896 2.37869 21.4355 2.60219 21.8334 3.00001C22.2312 3.39784 22.4547 3.9374 22.4547 4.50001C22.4547 5.06262 22.2312 5.60219 21.8334 6.00001L12.3334 15.5L8.33337 16.5L9.33337 12.5L18.8334 3.00001Z" stroke="#9CA3AF" stroke-width="2" stroke-linecap="round" stroke-linejoin="round"/>
</svg>
