<svg width="25" height="25" viewBox="0 0 25 25" fill="none" xmlns="http://www.w3.org/2000/svg">
<path d="M18.9375 8.5C18.9375 6.9087 18.3054 5.38258 17.1801 4.25736C16.0549 3.13214 14.5288 2.5 12.9375 2.5C11.3462 2.5 9.82008 3.13214 8.69486 4.25736C7.56964 5.38258 6.9375 6.9087 6.9375 8.5C6.9375 15.5 3.9375 17.5 3.9375 17.5H21.9375C21.9375 17.5 18.9375 15.5 18.9375 8.5Z" stroke="#9CA3AF" stroke-width="2" stroke-linecap="round" stroke-linejoin="round"/>
<path d="M14.6675 21.5C14.4917 21.8031 14.2393 22.0547 13.9357 22.2295C13.6321 22.4044 13.2879 22.4965 12.9375 22.4965C12.5871 22.4965 12.2429 22.4044 11.9393 22.2295C11.6356 22.0547 11.3833 21.8031 11.2075 21.5" stroke="#9CA3AF" stroke-width="2" stroke-linecap="round" stroke-linejoin="round"/>
</svg>
